<?xml version="1.0" standalone="no"?>
<!DOCTYPE svg PUBLIC "-//W3C//DTD SVG 20010904//EN"
 "http://www.w3.org/TR/2001/REC-SVG-20010904/DTD/svg10.dtd">
<svg className="svgImg" version="1.0" xmlns="http://www.w3.org/2000/svg"
 width="297.000000pt" height="228.000000pt" viewBox="0 0 297.000000 228.000000"
 preserveAspectRatio="xMidYMid meet">
<metadata>
Created by potrace 1.16, written by Peter Selinger 2001-2019
</metadata>
<g transform="translate(0.000000,228.000000) scale(0.100000,-0.100000)"
fill="#000000" stroke="none">
<path d="M2166 1935 c-55 -20 -86 -54 -93 -103 -7 -55 12 -101 50 -117 74 -31
137 33 127 129 -6 57 75 -85 104 -184 42 -141 40 -344 -5 -511 l-21 -77 20
-39 c11 -21 23 -54 26 -73 59 -349 76 -411 135 -500 70 -105 157 -150 267
-137 92 10 175 102 160 179 -10 53 -38 73 -103 73 -47 0 -58 -4 -78 -28 -30
-34 -41 -89 -27 -135 6 -20 10 -37 9 -39 -7 -7 -87 79 -122 133 -60 89 -87
179 -92 309 -6 131 6 206 46 285 l29 57 -19 29 c-28 43 -46 114 -64 254 -17
132 -53 285 -84 354 -51 115 -167 177 -265 141z"/>
<path d="M685 1921 c-117 -53 -170 -175 -210 -488 -18 -131 -35 -200 -64 -249
l-20 -34 28 -57 c37 -75 51 -144 51 -250 0 -159 -55 -310 -153 -418 -56 -62
-75 -69 -57 -21 24 65 -4 136 -65 161 -46 20 -90 9 -121 -28 -75 -89 41 -227
190 -227 52 0 114 31 166 83 85 85 119 174 155 402 14 90 35 180 49 217 25 61
25 65 10 113 -22 72 -44 229 -44 311 0 96 47 281 91 357 29 49 34 55 37 35 15
-115 97 -165 163 -99 23 24 29 38 29 74 0 106 -124 169 -235 118z"/>
</g>
</svg>
