<?xml version="1.0" encoding="iso-8859-1"?>
<!-- Generator: Adobe Illustrator 19.0.0, SVG Export Plug-In . SVG Version: 6.00 Build 0)  -->
<svg className="svgImg" version="1.1" id="Layer_1" xmlns="http://www.w3.org/2000/svg" xmlns:xlink="http://www.w3.org/1999/xlink" x="0px" y="0px"
	 viewBox="0 0 512 512" style="enable-background:new 0 0 512 512;" xml:space="preserve">
<g>
	<g>
		<path d="M501.637,10.369C494.951,3.682,486.062,0,476.607,0c-8.651,0-16.977,3.15-23.444,8.871L119.635,303.953
			c-0.034,0.029-0.059,0.066-0.093,0.097c-0.09,0.083-0.184,0.158-0.271,0.245c-0.207,0.207-0.399,0.423-0.578,0.645
			c-0.279,0.348-0.507,0.695-0.714,1.051c-0.025,0.045-0.052,0.086-0.077,0.131c-0.199,0.361-0.368,0.733-0.509,1.113
			c-0.021,0.056-0.039,0.111-0.059,0.168c-0.135,0.392-0.245,0.79-0.319,1.194c-0.01,0.035-6.562,36.625-6.562,36.625
			c-11.563,10.693-26.502,16.554-42.342,16.554c-4.689,0-9.379-0.527-13.942-1.568c-4.116-0.936-8.276,1.417-9.585,5.436
			L0.406,501.3c-0.007,0.021-0.01,0.042-0.016,0.064c-0.104,0.328-0.187,0.66-0.249,0.996c-0.011,0.06-0.016,0.12-0.026,0.18
			c-0.045,0.277-0.073,0.556-0.089,0.836c-0.005,0.088-0.011,0.175-0.013,0.264c-0.008,0.332-0.001,0.664,0.03,0.995
			c0.039,0.359,0.096,0.678,0.167,0.993c0.017,0.076,0.036,0.151,0.056,0.227c0.074,0.293,0.163,0.582,0.271,0.866
			c0.012,0.033,0.022,0.065,0.034,0.097c0.125,0.319,0.272,0.63,0.439,0.935c0.029,0.053,0.062,0.105,0.093,0.157
			c0.141,0.243,0.294,0.479,0.462,0.71c0.05,0.07,0.1,0.139,0.153,0.208c0.209,0.27,0.431,0.533,0.679,0.781
			c0.195,0.195,0.4,0.379,0.611,0.552c0.202,0.164,0.411,0.317,0.624,0.46c0.917,0.612,1.9,1.01,2.914,1.215
			c0.276,0.057,0.505,0.088,0.735,0.113c0.034,0.003,0.068,0.011,0.101,0.014C7.646,511.987,7.911,512,8.176,512
			c0.385,0,0.765-0.036,1.144-0.089c0.072-0.01,0.144-0.018,0.216-0.032c0.376-0.063,0.747-0.151,1.113-0.267
			c0.018-0.005,0.038-0.008,0.057-0.014L146.36,467.42c4.018-1.308,6.376-5.465,5.436-9.584
			c-4.623-20.28,0.975-41.131,14.986-56.284l36.591-6.552c0.439-0.084,0.834-0.193,1.223-0.327c0.06-0.021,0.119-0.04,0.179-0.062
			c0.378-0.141,0.747-0.307,1.105-0.504c0.048-0.026,0.094-0.057,0.142-0.084c0.351-0.204,0.693-0.428,1.016-0.688
			c0.252-0.202,0.467-0.393,0.673-0.599c0.087-0.087,0.163-0.182,0.245-0.271c0.031-0.033,0.066-0.058,0.096-0.092l295.082-333.53
			C515.499,44.864,514.841,23.572,501.637,10.369z M134.539,454.084l-96.487,31.424l51.169-51.169c3.191-3.191,3.191-8.364,0-11.554
			c-3.192-3.191-8.364-3.191-11.555,0L26.5,473.953l31.424-96.495c3.377,0.438,6.783,0.659,10.19,0.659
			c18.29,0,35.624-6.198,49.617-17.592l33.752,33.752C137.809,411.074,131.707,432.565,134.539,454.084z M165.496,385.182
			l-38.672-38.672l3.51-19.599l54.76,54.76L165.496,385.182z M490.896,48.015L244.959,325.993l-9.264-9.264
			c-3.191-3.191-8.364-3.191-11.554,0c-3.192,3.191-3.192,8.363-0.001,11.554l9.971,9.971l-32.542,36.782l-64.601-64.601
			l36.783-32.543l27.281,27.281c1.596,1.595,3.687,2.393,5.778,2.393c2.092,0,4.182-0.797,5.778-2.393
			c3.191-3.191,3.191-8.364,0-11.554l-26.575-26.575L463.99,21.11c3.476-3.075,7.958-4.769,12.617-4.769
			c5.091,0,9.876,1.983,13.475,5.582C497.191,29.031,497.549,40.493,490.896,48.015z"/>
	</g>
</g>
<g>
</g>
<g>
</g>
<g>
</g>
<g>
</g>
<g>
</g>
<g>
</g>
<g>
</g>
<g>
</g>
<g>
</g>
<g>
</g>
<g>
</g>
<g>
</g>
<g>
</g>
<g>
</g>
<g>
</g>
</svg>
