<?xml version="1.0" standalone="no"?>
<!DOCTYPE svg PUBLIC "-//W3C//DTD SVG 20010904//EN"
 "http://www.w3.org/TR/2001/REC-SVG-20010904/DTD/svg10.dtd">
<svg className="svgImg" version="1.0" xmlns="http://www.w3.org/2000/svg"
 width="1200.000000pt" height="1200.000000pt" viewBox="0 0 1200.000000 1200.000000"
 preserveAspectRatio="xMidYMid meet">
<metadata>
Created by potrace 1.16, written by Peter Selinger 2001-2019
</metadata>
<g transform="translate(0.000000,1200.000000) scale(0.100000,-0.100000)"
fill="#000000" stroke="none">
<path d="M1850 10481 c-89 -29 -141 -60 -206 -125 -65 -65 -102 -127 -128
-215 -24 -81 -24 -701 0 -782 49 -164 171 -290 332 -339 59 -18 93 -20 402
-20 309 0 343 2 402 20 156 48 280 172 328 329 18 57 20 93 20 401 0 309 -2
343 -20 402 -37 121 -134 239 -240 293 -103 52 -129 55 -494 54 -299 0 -348
-2 -396 -18z"/>
<path d="M4350 10481 c-89 -29 -141 -60 -206 -125 -65 -65 -102 -127 -128
-215 -13 -46 -16 -111 -16 -391 0 -361 3 -387 55 -490 54 -106 172 -203 293
-240 63 -20 99 -20 2902 -20 2792 0 2839 0 2901 20 157 48 281 172 329 328 18
59 20 93 20 402 0 309 -2 343 -20 402 -49 161 -175 283 -339 332 -50 15 -311
16 -2895 15 -2695 0 -2844 -1 -2896 -18z"/>
<path d="M1850 6981 c-89 -29 -141 -60 -206 -125 -65 -65 -102 -127 -128 -215
-24 -81 -24 -701 0 -782 49 -164 171 -290 332 -339 59 -18 93 -20 402 -20 309
0 343 2 402 20 156 48 280 172 328 329 18 57 20 93 20 401 0 309 -2 343 -20
402 -37 121 -134 239 -240 293 -103 52 -129 55 -494 54 -299 0 -348 -2 -396
-18z"/>
<path d="M4350 6981 c-89 -29 -141 -60 -206 -125 -65 -65 -102 -127 -128 -215
-13 -46 -16 -111 -16 -391 0 -361 3 -387 55 -490 54 -106 172 -203 293 -240
63 -20 99 -20 2902 -20 2792 0 2839 0 2901 20 157 48 281 172 329 328 18 59
20 93 20 402 0 309 -2 343 -20 402 -49 161 -175 283 -339 332 -50 15 -311 16
-2895 15 -2695 0 -2844 -1 -2896 -18z"/>
<path d="M1850 3481 c-89 -29 -141 -60 -206 -125 -65 -65 -102 -127 -128 -215
-24 -81 -24 -701 0 -782 49 -164 171 -290 332 -339 59 -18 93 -20 402 -20 309
0 343 2 402 20 156 48 280 172 328 329 18 57 20 93 20 401 0 309 -2 343 -20
402 -37 121 -134 239 -240 293 -103 52 -129 55 -494 54 -299 0 -348 -2 -396
-18z"/>
<path d="M4350 3481 c-89 -29 -141 -60 -206 -125 -65 -65 -102 -127 -128 -215
-13 -46 -16 -111 -16 -391 0 -361 3 -387 55 -490 54 -106 172 -203 293 -240
63 -20 99 -20 2902 -20 2792 0 2839 0 2901 20 157 48 281 172 329 328 18 59
20 93 20 402 0 309 -2 343 -20 402 -49 161 -175 283 -339 332 -50 15 -311 16
-2895 15 -2695 0 -2844 -1 -2896 -18z"/>
</g>
</svg>
