<?xml version="1.0" standalone="no"?>
<!DOCTYPE svg PUBLIC "-//W3C//DTD SVG 20010904//EN"
 "http://www.w3.org/TR/2001/REC-SVG-20010904/DTD/svg10.dtd">
<svg version="1.0" xmlns="http://www.w3.org/2000/svg"
 width="300.000000pt" height="300.000000pt" viewBox="0 0 300.000000 300.000000"
 preserveAspectRatio="xMidYMid meet">
<g transform="translate(0.000000,300.000000) scale(0.100000,-0.100000)"
fill="#B4A45A" stroke="none">
<path d="M1355 2769 c-277 -48 -449 -120 -640 -266 -81 -63 -245 -219 -245
-234 0 -5 -17 -36 -39 -67 -112 -165 -203 -420 -228 -641 -12 -101 29 -364 77
-504 51 -145 60 -168 79 -195 68 -99 131 -202 136 -224 4 -15 24 -42 45 -62
21 -19 41 -44 44 -54 4 -11 23 -24 45 -31 22 -6 65 -30 98 -54 176 -128 355
-207 553 -243 126 -23 364 -25 475 -3 172 33 380 128 536 246 222 167 370 378
468 668 66 197 83 473 37 615 -14 41 -36 111 -49 155 -52 168 -155 345 -281
482 -34 38 -73 83 -85 102 -26 36 -110 94 -152 104 -14 4 -37 17 -51 30 -14
13 -34 27 -44 30 -11 3 -59 23 -109 45 -208 92 -484 133 -670 101z m355 -30
c59 -6 293 -78 302 -93 4 -6 8 -7 8 -3 0 5 25 -5 55 -22 30 -17 55 -29 55 -25
0 3 15 -5 33 -18 17 -13 63 -39 101 -58 55 -28 80 -48 117 -97 27 -33 67 -81
90 -105 60 -62 208 -291 209 -323 1 -3 9 -24 19 -48 11 -25 27 -71 36 -103 10
-33 28 -94 41 -137 27 -88 30 -170 14 -355 -11 -127 -59 -289 -117 -401 -18
-35 -33 -68 -33 -73 0 -5 -30 -54 -66 -109 -89 -133 -220 -266 -342 -348 -21
-13 -48 -32 -62 -41 -27 -18 -120 -66 -133 -68 -4 -1 -20 -8 -35 -15 -15 -8
-52 -22 -82 -32 -30 -10 -60 -22 -66 -26 -6 -5 -48 -16 -93 -24 -108 -21 -401
-15 -516 9 -90 20 -211 60 -231 77 -8 6 -14 9 -14 5 0 -11 -171 85 -234 131
-33 25 -85 56 -113 69 -29 13 -53 29 -53 35 0 6 -18 26 -39 46 -22 19 -42 46
-46 61 -5 22 -33 67 -134 222 -9 14 -27 52 -40 85 -12 33 -27 69 -31 80 -16
38 -21 65 -12 65 7 0 23 -40 37 -90 5 -18 31 -68 44 -83 8 -10 16 -24 17 -32
7 -48 110 -192 218 -304 73 -76 262 -221 296 -226 3 -1 28 -13 56 -27 42 -22
139 -61 179 -72 6 -2 17 -6 25 -9 37 -14 191 -37 245 -37 33 0 69 0 80 -1 170
-8 331 19 464 77 31 14 57 25 59 24 3 0 119 59 153 79 61 36 112 74 153 114
24 23 67 64 95 92 60 57 156 186 194 260 29 55 85 177 85 185 0 3 6 19 12 35
20 51 41 205 39 283 -1 41 3 77 8 81 26 17 7 230 -32 366 -9 33 -18 67 -19 75
0 8 -5 18 -9 21 -5 3 -10 15 -12 25 -2 10 -4 20 -4 22 -1 1 -1 5 0 8 0 4 -4
10 -11 14 -6 4 -12 13 -14 21 -3 24 -88 163 -108 177 -10 7 -18 19 -18 26 0
40 -200 240 -318 319 -78 52 -266 143 -327 158 -27 6 -57 16 -66 20 -9 5 -33
9 -53 11 -20 1 -36 5 -36 9 0 3 -21 4 -47 2 -121 -12 -313 0 -313 19 0 8 256
6 340 -3z m-350 -3 c0 -11 -123 -45 -177 -50 -35 -3 -72 -10 -82 -16 -22 -11
-48 -14 -38 -3 10 9 106 43 140 48 15 3 41 7 59 10 17 3 34 7 36 10 6 6 62 7
62 1z m270 -41 c115 -2 148 -6 225 -29 116 -35 251 -99 350 -166 101 -68 279
-242 301 -295 9 -22 24 -45 34 -52 10 -7 34 -42 54 -77 109 -194 178 -493 142
-610 -9 -30 -13 -66 -9 -97 6 -54 -11 -189 -34 -264 -23 -74 -54 -145 -64
-145 -5 0 -9 -9 -9 -21 0 -63 -204 -334 -282 -375 -16 -8 -28 -20 -28 -26 0
-13 -12 -23 -105 -87 -183 -126 -431 -210 -625 -210 -36 0 -92 0 -126 -1 -209
-4 -487 96 -687 246 -150 112 -321 318 -348 416 -5 21 -14 38 -19 38 -18 0
-99 225 -101 283 -1 18 -8 64 -15 104 -45 234 32 591 169 787 23 34 49 74 57
90 27 52 230 245 330 313 109 74 262 137 360 148 36 4 85 16 110 26 37 16 58
18 115 12 39 -3 131 -7 205 -8z m-585 -43 c-6 -5 -30 -17 -55 -27 -84 -36
-199 -110 -271 -175 -105 -95 -182 -172 -202 -200 -91 -135 -129 -196 -153
-248 -15 -33 -31 -59 -36 -56 -4 3 -3 15 4 27 7 12 13 24 13 27 3 16 73 143
106 192 22 31 39 61 39 65 0 11 30 42 126 131 131 121 184 158 323 229 76 39
131 57 106 35z m-715 -724 c0 -2 -10 -32 -21 -68 -31 -97 -35 -117 -50 -225
-17 -129 0 -399 30 -478 14 -36 14 -47 0 -47 -6 0 -9 7 -5 15 3 8 1 15 -5 15
-5 0 -9 6 -8 13 2 6 -3 30 -9 52 -11 41 -13 51 -33 235 -10 93 -10 114 5 170
9 36 19 79 21 95 2 17 6 40 9 53 3 12 8 32 11 45 12 53 38 127 46 127 5 0 9
-1 9 -2z"/>
<path d="M1303 2300 c-38 -5 -87 -22 -125 -42 -83 -44 -201 -161 -272 -270
-51 -78 -55 -89 -45 -112 13 -27 41 -42 59 -31 6 4 33 39 60 80 64 95 148 185
208 223 56 36 183 65 243 56 87 -14 138 -77 165 -206 19 -89 13 -193 -16 -270
-34 -91 -143 -222 -386 -463 -127 -126 -246 -252 -264 -278 -70 -106 -93 -242
-46 -286 l23 -22 33 51 c39 61 105 120 168 151 38 19 64 24 132 24 81 0 97 -4
340 -87 297 -102 419 -128 512 -109 75 16 116 45 147 106 25 47 26 57 24 199
-1 112 -5 151 -15 157 -22 14 -30 6 -64 -59 -41 -81 -58 -100 -119 -128 -67
-32 -116 -30 -315 7 -206 39 -431 46 -539 16 -76 -21 -183 -71 -207 -98 -23
-25 -11 -24 45 6 209 112 358 117 826 29 31 -6 129 -7 155 -1 68 14 154 96
181 172 7 19 17 35 21 35 4 0 8 -64 8 -143 0 -128 -2 -147 -22 -187 -43 -84
-142 -110 -308 -80 -36 6 -186 52 -334 102 -264 88 -270 90 -350 86 -61 -2
-93 -9 -130 -28 -59 -30 -137 -98 -166 -145 -27 -44 -37 -44 -46 1 -8 45 17
139 54 203 14 25 134 154 267 286 377 376 436 472 422 680 -11 164 -69 267
-167 296 -54 16 -182 -1 -249 -33 -57 -27 -191 -160 -251 -250 -25 -37 -51
-68 -58 -68 -28 0 -22 34 18 102 59 98 187 223 275 268 63 31 78 35 171 38
171 7 275 -28 372 -125 62 -63 70 -74 106 -148 50 -102 27 -226 -62 -334 -47
-57 -137 -143 -193 -184 -24 -17 -48 -37 -52 -44 -4 -7 -13 -13 -19 -13 -5 0
-32 -17 -59 -37 -26 -21 -73 -56 -103 -78 -69 -50 -323 -306 -361 -363 -47
-72 -21 -57 49 27 82 98 269 277 355 340 316 230 398 307 458 427 32 65 37 86
37 144 0 57 -5 78 -33 134 -41 79 -126 177 -187 212 -96 56 -243 81 -371 64z"/>
<path d="M1596 2195 c-3 -8 8 -36 24 -62 42 -68 64 -161 64 -273 0 -84 -3
-101 -27 -149 -21 -41 -25 -57 -16 -67 6 -8 15 -14 18 -14 26 0 126 126 156
195 40 92 -2 213 -109 321 -63 63 -98 79 -110 49z m124 -92 c18 -20 46 -66 63
-101 24 -51 29 -72 25 -112 -6 -56 -48 -132 -110 -199 -43 -47 -62 -49 -30 -3
33 45 45 114 39 210 -7 101 -36 203 -72 252 -14 18 -25 38 -25 43 0 12 72 -46
110 -90z"/>
<path d="M1243 1824 c-8 -22 4 -210 18 -257 9 -34 32 -57 45 -45 10 10 -14
288 -26 303 -16 19 -29 19 -37 -1z m24 -106 c-2 -18 -4 -6 -4 27 0 33 2 48 4
33 2 -15 2 -42 0 -60z"/>
<path d="M1025 1790 c-3 -5 2 -26 11 -47 11 -25 15 -63 14 -114 -1 -78 13
-129 36 -129 19 0 27 19 14 35 -8 10 -7 16 6 23 12 7 15 19 13 50 -5 43 -4 43
45 9 23 -16 30 -17 37 -6 6 10 9 10 9 2 0 -7 7 -13 16 -13 11 0 14 5 10 16 -3
9 -6 21 -6 28 0 13 -172 156 -188 156 -6 0 -13 -4 -17 -10z m115 -90 c71 -55
78 -83 13 -52 -40 19 -54 10 -59 -39 -2 -18 -9 -38 -15 -44 -7 -7 -9 13 -6 65
3 54 1 83 -10 104 -19 37 -8 32 77 -34z"/>
<path d="M1741 1453 c-16 -32 -50 -94 -75 -138 -53 -92 -59 -125 -22 -125 14
0 32 10 40 22 15 20 16 21 34 5 22 -20 68 -23 75 -4 7 20 -13 64 -33 73 -18 9
-18 11 4 53 l23 44 38 -69 c46 -83 107 -174 118 -174 23 0 7 80 -32 160 -21
41 -50 105 -66 143 -23 56 -32 67 -51 67 -19 0 -30 -12 -53 -57z m94 -40 c16
-38 41 -94 57 -126 45 -90 27 -91 -24 -2 -72 125 -88 133 -124 64 -19 -38 -18
-59 8 -86 27 -29 17 -41 -22 -26 -25 9 -34 8 -55 -9 -24 -18 -25 -18 -25 -1 0
10 12 38 26 63 52 88 63 109 84 149 11 23 26 41 34 41 7 0 26 -30 41 -67z"/>
<path d="M1422 971 c-8 -5 26 -11 82 -15 53 -3 131 -17 178 -31 178 -54 199
-57 298 -53 81 3 106 8 148 30 46 24 52 25 52 9 0 -26 -59 -78 -109 -96 -51
-18 -168 -20 -243 -4 -29 6 -100 33 -158 60 -107 49 -217 83 -248 77 -16 -4 0
-10 103 -41 22 -6 74 -28 115 -48 41 -20 93 -42 115 -49 22 -7 45 -16 50 -19
6 -4 39 -8 75 -10 36 -2 73 -5 82 -6 9 -2 42 2 72 9 31 8 56 11 56 9 0 -7 74
51 92 72 21 24 23 58 4 74 -10 9 -25 5 -65 -15 -69 -36 -203 -42 -306 -13 -38
10 -75 20 -82 22 -7 2 -16 6 -19 10 -4 4 -17 7 -29 7 -12 0 -25 3 -28 7 -14
13 -216 26 -235 14z"/>
</g>
</svg>
